PathFileType	4	(X/Y/Z)	C:/Users/opensim2020/Desktop/walking_exp_matlab/subject03_walking10_straight_04.trc																																																																																																																																					
DataRate	CameraRate	NumFrames	NumMarkers	Units	OrigDataRate	OrigDataStartFrame	OrigNumFrames																																																																																																																																	
100	100	6	45	mm	100	4061	317																																																																																																																																	
Frame#	Time	LFHD			RFHD			LBHD			RBHD			C7			T10			CLAV			STRN			RBAK			LSHO			LUPA			LELB			LFRM			LWRA			LWRB			LFIN			RSHO			RUPA			RELB			RFRM			RWRA			RWRB			RFIN			LASI			RASI			LPSI			RPSI			LTHI			LKNE			LTIB			LANK			LHEE			LTOE			RTHI			RKNE			RTIB			RANK			RHEE			RTOE			*39			*40			*41			*42			*43			*44		
		X1	Y1	Z1	X2	Y2	Z2	X3	Y3	Z3	X4	Y4	Z4	X5	Y5	Z5	X6	Y6	Z6	X7	Y7	Z7	X8	Y8	Z8	X9	Y9	Z9	X10	Y10	Z10	X11	Y11	Z11	X12	Y12	Z12	X13	Y13	Z13	X14	Y14	Z14	X15	Y15	Z15	X16	Y16	Z16	X17	Y17	Z17	X18	Y18	Z18	X19	Y19	Z19	X20	Y20	Z20	X21	Y21	Z21	X22	Y22	Z22	X23	Y23	Z23	X24	Y24	Z24	X25	Y25	Z25	X26	Y26	Z26	X27	Y27	Z27	X28	Y28	Z28	X29	Y29	Z29	X30	Y30	Z30	X31	Y31	Z31	X32	Y32	Z32	X33	Y33	Z33	X34	Y34	Z34	X35	Y35	Z35	X36	Y36	Z36	X37	Y37	Z37	X38	Y38	Z38	X39	Y39	Z39	X40	Y40	Z40	X41	Y41	Z41	X42	Y42	Z42	X43	Y43	Z43	X44	Y44	Z44	X45	Y45	Z45
																																																																																																																																								
238	2.37	680.01062	1622.13647	959.96655	671.7746	1619.39551	1092.73938	553.34937	1575.21741	954.72919	550.04626	1572.21411	1085.39233	522.16425	1412.7627	1011.37036	500.57657	1097.08643	1014.23029	644.81476	1338.68689	1005.47314	693.19208	1175.72473	995.99658	478.80548	1233.90918	1109.05139	594.04041	1373.55383	851.97186	594.32123	1174.23511	784.05658	606.68945	1051.13416	775.04218	638.09247	924.505	776.24432	663.12231	807.79419	806.83881	638.24268	811.30518	756.42017	652.349	726.97864	768.92303	607.67664	1358.31201	1168.39563	619.52576	1136.49658	1242.1416	641.73102	1025.90881	1256.71582	671.0188	892.01422	1257.65723	710.27881	801.09052	1221.24976	679.84869	792.09686	1265.57764	709.29895	723.59363	1253.82861	658.76703	930.75763	888.62732	678.67548	943.26721	1125.97705	501.87759	954.43872	951.2243	514.87274	972.42004	1098.93567	603.41541	629.48334	833.55908	615.43262	449.89709	846.43756	461.05341	325.58218	858.27026	315.85535	180.9673	907.37866	268.88138	185.78822	953.18518	383.15567	47.41782	913.07489	636.6637	647.6488	1167.20984	658.56122	469.08176	1126.33813	622.255	281.56754	1125.72595	608.00372	66.85719	1070.37634	564.06573	35.8185	1018.98474	750.6629	31.30004	1051.26221	NaN	NaN	NaN	NaN	NaN	NaN	NaN	NaN	NaN	NaN	NaN	NaN	NaN	NaN	NaN	NaN	NaN	NaN
239	2.38	686.83447	1622.05188	960.27582	678.97809	1619.24268	1093.01563	560.07751	1574.77393	955.7168	557.39795	1571.6803	1086.05847	529.39014	1412.9436	1012.32751	506.90558	1097.12732	1015.05579	651.70496	1338.34155	1005.83423	699.69708	1175.28992	996.35498	485.74402	1234.10815	1110.11743	600.23285	1373.1521	852.43146	599.30713	1173.7179	784.34009	611.05206	1050.5929	775.32666	641.26581	923.58368	776.3313	664.99261	806.58337	806.44116	640.04749	810.45502	756.15955	653.81158	726.20306	767.875	615.60577	1358.03674	1168.91443	629.06323	1136.40771	1242.90051	652.06201	1026.03577	1257.82837	681.96869	892.27032	1259.0105	721.14325	801.32629	1222.6062	691.32654	792.45178	1267.41809	721.29895	724.3056	1255.93164	665.13226	930.75745	889.28479	685.48364	943.35388	1126.7478	508.08096	953.78253	952.38214	521.51563	971.99622	1099.88245	614.11206	629.63757	833.93671	630.41205	450.43192	845.91278	476.49051	326.3927	858.10419	331.16937	181.65845	907.20013	284.0477	185.75757	953.02222	399.99222	48.96073	911.45728	642.81891	647.44653	1167.59009	663.01514	468.79413	1126.42175	625.14154	281.40741	1125.81445	608.3429	66.96702	1070.2113	564.13086	36.01364	1018.94464	750.83081	31.24382	1051.16565	NaN	NaN	NaN	NaN	NaN	NaN	NaN	NaN	NaN	NaN	NaN	NaN	NaN	NaN	NaN	NaN	NaN	NaN
240	2.39	693.69653	1621.98804	960.42773	686.25555	1619.10767	1093.2749	567.26508	1574.40723	955.91602	564.6745	1571.31445	1086.59656	536.32269	1413.02441	1013.28937	513.31238	1097.24548	1016.01404	658.64941	1338.13123	1006.21045	706.09741	1174.93372	996.69525	492.66232	1234.36633	1111.09717	606.401	1372.94312	852.93658	604.21802	1173.3606	784.61182	615.0882	1050.29712	775.59485	644.45978	923.01917	776.46057	665.80164	805.0943	806.94623	642.29803	810.02954	755.74274	655.58899	725.81903	766.84607	623.27832	1357.85413	1169.2334	638.61511	1136.51172	1243.49097	662.52533	1026.37231	1258.41748	692.88776	892.73364	1260.23816	732.08649	801.69574	1224.02942	702.64081	793.05457	1269.12109	733.17584	725.16577	1258.0304	671.44293	931.06262	889.99048	692.10663	943.30072	1127.45203	514.44434	953.42657	953.38263	528.10461	971.56036	1100.89893	625.32507	629.93506	834.414	645.14752	451.13394	845.51373	492.32721	326.62115	858.01868	347.37735	181.44994	906.84552	299.80499	184.75826	952.65857	418.11319	49.93391	910.49377	648.80078	647.20679	1167.91833	667.52069	468.44748	1126.48059	627.98395	281.26947	1125.81812	608.35986	67.39268	1070.49792	564.18677	36.24234	1018.91602	750.96063	31.23175	1051.09229	NaN	NaN	NaN	NaN	NaN	NaN	NaN	NaN	NaN	NaN	NaN	NaN	NaN	NaN	NaN	NaN	NaN	NaN
241	2.4	700.57629	1621.91223	960.56439	693.52417	1618.97925	1093.41345	574.18536	1574.18298	956.42773	572.026	1571.02869	1087.19189	543.3114	1413.09131	1013.97406	519.53076	1097.40393	1016.99634	665.45142	1337.9436	1006.51501	712.43329	1174.63867	997.05066	499.51498	1234.69275	1112.01086	612.50586	1372.88074	853.42041	607.79663	1173.35742	785.37445	619.16443	1050.19971	775.83484	647.6532	922.76221	776.54871	668.43231	805.05627	806.25354	644.94427	810.04059	755.2254	657.65039	725.68457	765.89355	630.99481	1357.99597	1169.61707	648.03229	1136.83289	1243.88611	672.90625	1026.93384	1258.99487	703.75702	893.40955	1261.37732	742.91791	802.29089	1225.41809	713.99133	793.84216	1270.85291	744.90326	726.24469	1260.1416	677.83966	931.59369	890.73199	698.71039	943.21997	1128.18042	520.56073	953.36682	954.54456	534.76636	971.14832	1101.92432	635.48688	630.12292	835.45367	659.86414	452.02115	845.68622	508.55682	326.22247	857.99084	364.1608	180.44585	906.59546	316.11792	182.67195	952.20923	437.65546	50.6101	910.14862	654.64502	646.8786	1168.10083	672.05151	468.06281	1126.59607	630.69543	281.12897	1125.84204	608.8645	67.32759	1070.42358	564.24817	36.48071	1018.88965	751.07623	31.15839	1051.05066	613.82727	1676.6814	1012.50201	NaN	NaN	NaN	NaN	NaN	NaN	NaN	NaN	NaN	NaN	NaN	NaN	NaN	NaN	NaN
242	2.41	707.45654	1621.82446	960.63177	700.83575	1618.87524	1093.52429	580.99884	1574.15039	956.995	579.30896	1570.90198	1087.59375	550.24414	1413.13562	1014.69623	525.83344	1097.55713	1017.85602	672.19751	1337.8291	1006.75555	718.65869	1174.41711	997.43219	506.32339	1235.12537	1112.94214	618.61029	1372.9491	853.9201	612.25372	1173.51196	785.64581	622.74225	1050.14807	775.96765	650.8045	922.69489	776.56384	670.62958	804.83911	806.04199	647.41284	810.16687	754.93457	660.2489	725.87836	764.92212	638.27405	1358.15967	1169.96594	657.3418	1137.26013	1244.20374	683.20691	1027.65723	1259.3302	714.591	894.3103	1262.43726	753.75726	803.09949	1226.73499	725.22357	794.92999	1272.50989	756.51343	727.43195	1262.25964	684.11658	932.2652	891.49188	705.30841	943.1319	1128.92993	527.04779	953.21857	955.45599	541.39056	970.82819	1102.95068	647.51715	630.88977	835.65247	674.73761	453.00165	846.04468	524.99011	325.44751	858.00775	381.77051	178.58557	906.31232	333.00616	179.44461	951.55792	458.73648	50.88577	910.34351	659.99695	646.95605	1168.92493	676.21985	467.71225	1126.58972	633.24884	281.03836	1125.86963	609.07941	67.5106	1070.29016	564.36603	36.77693	1018.77423	751.20917	31.12854	1050.98889	NaN	NaN	NaN	NaN	NaN	NaN	NaN	NaN	NaN	NaN	NaN	NaN	NaN	NaN	NaN	NaN	NaN	NaN
243	2.42	714.39075	1621.75745	960.62421	708.19196	1618.85547	1093.58423	587.68884	1574.22351	957.75232	586.63483	1570.96741	1088.04346	556.90948	1413.35706	1015.29706	532.03284	1097.72437	1018.93933	678.91412	1337.81323	1006.98138	724.85681	1174.24377	997.75366	513.1875	1235.57544	1113.90454	624.75897	1373.14197	854.37775	616.59344	1173.78992	785.9328	626.86285	1050.58801	776.02563	653.8988	922.82654	776.47906	673.15302	804.82739	805.75751	650.00732	810.46179	754.67755	663.2829	726.30591	763.91058	645.56561	1358.49219	1170.22937	666.45673	1137.84949	1244.45593	693.32391	1028.5686	1259.65662	725.34344	895.43445	1263.40564	764.69489	804.05682	1228.15601	736.33356	796.11151	1274.02515	767.9021	728.75989	1264.30029	690.6377	933.12445	892.11609	711.82434	943.03827	1129.63	533.30762	953.47028	956.38965	547.90588	970.57751	1103.89612	658.6463	631.4519	836.38861	689.26776	453.96857	846.73987	541.64203	324.36868	858.21442	400.05759	175.68945	906.09229	350.54132	175.2196	950.96271	480.88873	50.69608	911.02588	666.08649	646.33228	1168.42334	680.37524	467.35315	1126.7262	635.58459	280.95724	1125.94934	609.21942	67.73398	1070.31555	564.30981	37.01797	1018.89777	751.27631	31.07804	1050.97888	628.37189	1676.24548	1012.13904	NaN	NaN	NaN	NaN	NaN	NaN	NaN	NaN	NaN	NaN	NaN	NaN	NaN	NaN	NaN
